<?xml version="1.0" encoding="utf-8"?>
<!-- Generator: Adobe Illustrator 27.0.1, SVG Export Plug-In . SVG Version: 6.00 Build 0)  -->
<svg version="1.1" id="Laag_1" xmlns="http://www.w3.org/2000/svg" xmlns:xlink="http://www.w3.org/1999/xlink" x="0px" y="0px"
	 viewBox="0 0 284.7 73.4" style="enable-background:new 0 0 284.7 73.4;" xml:space="preserve">
<style type="text/css">
	.st0{fill:#D0D0D0;}
	.st1{fill:#FFFFFF;}
	.st2{fill:none;}
	.st3{fill:none;stroke:#312783;stroke-miterlimit:10;}
</style>
<path class="st0" d="M54.4,73.8c0-73.3,229.9-73.3,229.9-73.3C3,0.5,3,73.8,3,73.8H54.4z"/>
<g>
	<path class="st1" d="M51.5,73.8c0.8-29.4,34.7-43.5,58.6-51.5C145.8,11,183.3,6.4,220.5,3.2c21.3-1.7,42.6-2.8,63.9-3.3v1.2
		C241.8,1.6,199.2,6,157.5,14c-29.4,6.1-81.3,18-96.7,45.8c-2.2,4.4-3.4,9.2-3.4,14H51.5L51.5,73.8z"/>
</g>
<g>
	<path class="st1" d="M284.3,1C215,1,72.3,6.8,19.6,52.3C13.4,58,7,65,6,73.7l-6,0.1c0.1-3.7,1.6-7.2,3.2-10.4
		C32,13.8,155,4.2,208.4,1.6c25.3-1.2,50.6-1.5,75.9-1.7V1L284.3,1z"/>
</g>
<rect x="77.6" y="38.3" class="st2" width="204.4" height="35.4"/>
<path class="st1" d="M92.4,38.8l-4.9,34.5h-4.9l4.9-34.5L92.4,38.8z M99.4,38.4c2.5,0,4.5,0.3,6.2,0.9c1.6,0.6,2.9,1.6,3.6,3.1
	s0.9,3.5,0.6,6.2c-0.2,1.7-0.7,3.2-1.2,4.4c-0.6,1.2-1.4,2.2-2.5,2.9s-2.4,1.2-4,1.4l-0.1,0.2c0.6,0.2,1.2,0.5,1.7,0.9
	s0.9,1,1.3,1.7s0.6,1.5,0.8,2.5l2.1,10.8h-5.1l-1.9-10.8c-0.2-1.3-0.6-2.2-1.2-2.7s-1.4-0.8-2.5-0.8c-2.1,0-3.9-0.1-5.4-0.1
	s-2.7,0-3.7,0s-1.8,0-2.5,0l0.5-4h11.3c1.6,0,3-0.2,4-0.6c1-0.4,1.8-1,2.4-1.9s1-2.2,1.2-3.9c0.2-1.5,0.2-2.7-0.1-3.5
	c-0.2-0.9-0.8-1.5-1.7-1.8c-0.8-0.3-2.1-0.5-3.7-0.5c-2.9,0-5.4,0-7.4,0s-3.4,0-4.1,0L87.7,39c1.3-0.1,2.5-0.2,3.6-0.3
	c1.2-0.1,2.4-0.1,3.7-0.1C96.2,38.4,97.7,38.4,99.4,38.4z"/>
<path class="st1" d="M132.7,38.8c0.5,0,0.9,0.1,1.2,0.4c0.3,0.3,0.5,0.6,0.5,1l6.2,33h-5L131,45.6c-0.1-0.5-0.1-1-0.2-1.5
	c-0.1-0.5-0.1-1-0.1-1.5h-1.5c-0.2,0.4-0.4,0.9-0.6,1.5c-0.2,0.5-0.4,1.1-0.7,1.5l-12.4,27.7h-5.3l15.6-33.2c0.1-0.5,0.4-0.8,0.7-1
	c0.3-0.2,0.7-0.3,1.1-0.3L132.7,38.8z M136.2,58.7l-0.5,4.2h-17.6l0.5-4.2H136.2z"/>
<path class="st1" d="M155,38.8l-4.8,34.5h-5.1l4.9-34.5L155,38.8z"/>
<path class="st1" d="M168.2,38.8L164.3,66c-0.1,1,0,1.7,0.4,2.3c0.4,0.6,1.1,0.8,2.3,0.8h12.4l-0.1,3.9c-2.2,0.1-4.4,0.2-6.8,0.2
	c-2.3,0-4.6,0-6.9,0c-1.4,0-2.6-0.3-3.6-0.8s-1.8-1.4-2.2-2.4c-0.5-1.1-0.6-2.4-0.4-3.9l3.8-27.3H168.2z"/>
<path class="st1" d="M194,38.8l-4.8,34.5h-5.1l4.9-34.5L194,38.8z"/>
<path class="st1" d="M213.8,38.4c3.6,0,6.3,0.6,8.3,1.7c2,1.1,3.3,3,3.9,5.6c0.6,2.6,0.6,6.1,0,10.6c-0.5,3.7-1.2,6.8-2,9
	c-0.8,2.3-1.9,4.1-3.2,5.3c-1.3,1.2-2.9,2.1-4.8,2.5c-1.9,0.4-4.2,0.7-6.8,0.7c-1.8,0-3.8,0-5.9-0.1c-2.1-0.1-4.1-0.2-5.9-0.3l2.6-4
	c1.4,0.1,2.9,0.1,4.6,0.2s3.2,0.1,4.5,0.1c1.9,0,3.5-0.2,4.8-0.5c1.3-0.4,2.4-1,3.3-2c0.9-1,1.6-2.4,2.2-4.2c0.6-1.8,1-4.1,1.5-7
	c0.4-2.8,0.6-5,0.5-6.8s-0.3-3.1-0.8-4c-0.5-1-1.4-1.6-2.5-2s-2.6-0.6-4.3-0.6c-0.9,0-1.9,0-3,0c-1.2,0-2.3,0-3.5,0.1
	c-1.2,0-2.2,0-3.1,0.1l-1.8-3.8c1.1-0.1,2.4-0.2,3.8-0.2c1.4-0.1,2.8-0.1,4.1-0.2C211.5,38.4,212.7,38.4,213.8,38.4z M207.3,38.8
	l-4.9,34.5h-5l4.9-34.5L207.3,38.8z"/>
<path class="st1" d="M249.2,38.8c0.5,0,0.9,0.1,1.2,0.4c0.3,0.3,0.5,0.6,0.5,1l6.2,33h-5l-4.7-27.7c-0.1-0.5-0.1-1-0.2-1.5
	c-0.1-0.5-0.1-1-0.1-1.5h-1.5c-0.2,0.4-0.4,0.9-0.6,1.5c-0.2,0.5-0.4,1.1-0.7,1.5L232,73.3h-5.3l15.6-33.2c0.1-0.5,0.4-0.8,0.7-1
	s0.7-0.3,1.1-0.3L249.2,38.8z M252.7,58.7l-0.5,4.2h-17.6l0.6-4.2H252.7z"/>
<path class="st1" d="M284.7,38.8l-14.9,23h-4.5l-8.5-23h5.1l5,14.3c0.2,0.6,0.4,1.3,0.6,2s0.3,1.4,0.4,2h0.5
	c0.2-0.6,0.5-1.3,0.9-2.1s0.8-1.4,1.1-2l9-14.2H284.7z M270.5,58.4l-2.1,15h-5.1l2.2-15H270.5z"/>
<path class="st3" d="M274.8,73.8"/>
</svg>
