<?xml version="1.0" encoding="utf-8"?>
<!-- Generator: Adobe Illustrator 27.0.0, SVG Export Plug-In . SVG Version: 6.00 Build 0)  -->
<svg version="1.1" id="Laag_1" xmlns="http://www.w3.org/2000/svg" xmlns:xlink="http://www.w3.org/1999/xlink" x="0px" y="0px"
	 viewBox="0 0 284.7 73.4" style="enable-background:new 0 0 284.7 73.4;" xml:space="preserve">
<style type="text/css">
	.st0{fill:#8ACBC1;}
	.st1{fill:#2D2E83;}
	.st2{fill:none;stroke:#312783;stroke-miterlimit:10;}
</style>
<path class="st0" d="M54.4,73.8c0-73.3,229.9-73.3,229.9-73.3C3,0.5,3,73.8,3,73.8L54.4,73.8z"/>
<g>
	<path class="st1" d="M284.3,1C233.1,1.6,86.6,12.3,60.8,59.7c-2.2,4.4-3.4,9.2-3.4,14c0,0-6,0-6,0c0.1-5.8,1.7-11.6,4.5-16.6
		c16.7-29,70-40.3,101-46C199,3.7,241.7,1.2,284.3-0.1C284.3-0.1,284.3,1,284.3,1L284.3,1z"/>
</g>
<g>
	<path class="st1" d="M284.3,1C215,1,72.3,6.8,19.6,52.3C13.4,58,7,65,6,73.7c0,0-6,0.1-6,0.1c0.1-3.7,1.6-7.2,3.2-10.4
		C32,13.8,155,4.2,208.4,1.6c25.3-1.2,50.6-1.5,75.9-1.7C284.3-0.1,284.3,1,284.3,1L284.3,1z"/>
</g>
<path class="st2" d="M274.8,73.8"/>
<g>
</g>
<g>
</g>
<g>
</g>
<g>
</g>
<g>
</g>
<g>
</g>
</svg>
